
        <svg xmlns="http://www.w3.org/2000/svg" xmlns:xlink="http://www.w3.org/1999/xlink" version="1.1" width="3166.6666666666665" 
        height="1507.208029792188" viewBox="0 0 3166.6666666666665 1507.208029792188">
			
			<g transform="scale(8.333333333333334) translate(10, 10)">
				<defs id="SvgjsDefs1522"><linearGradient id="SvgjsLinearGradient1527"><stop id="SvgjsStop1528" stop-color="#8f5e25" offset="0"></stop><stop id="SvgjsStop1529" stop-color="#fbf4a1" offset="0.5"></stop><stop id="SvgjsStop1530" stop-color="#8f5e25" offset="1"></stop></linearGradient><linearGradient id="SvgjsLinearGradient1531"><stop id="SvgjsStop1532" stop-color="#8f5e25" offset="0"></stop><stop id="SvgjsStop1533" stop-color="#fbf4a1" offset="0.5"></stop><stop id="SvgjsStop1534" stop-color="#8f5e25" offset="1"></stop></linearGradient></defs><g id="SvgjsG1523" featureKey="PG4fjM-0" transform="matrix(1.6762773730562506,0,0,1.6762773730562506,-31.813865455567175,1.6186131347187462)" fill="url(#SvgjsLinearGradient1527)"><path xmlns="http://www.w3.org/2000/svg" d="M46.415,60.798l-1.101-0.362l0.874-0.128L46.415,60.798z M53.812,60.308l-0.227,0.49l1.094-0.362L53.812,60.308z   M22.055,51.141l-1.329-2.345l0.348,2.572l3.553,22.768l1.365-5.692L22.055,51.141z M41.64,60.89  c-0.213-0.071-0.391-0.235-0.476-0.434l-0.973-2.196l-3.311,12.315l4.136-2.203l2.374-6.9L41.64,60.89z M55.106,61.97l-2.985,0.995  l-0.007-0.028l-1.99,0.313c-0.085,0.014-0.163,0.014-0.249,0l-1.99-0.313l-0.007,0.028l-0.242-0.078l-2.743-0.917l-2.146,6.246  h14.504L55.106,61.97z M59.81,58.261l-0.974,2.196c-0.092,0.199-0.263,0.362-0.476,0.426l-1.748,0.59l2.373,6.907l4.129,2.196  L59.81,58.261z M72.964,70.924l-6.872,14.12l1.947,1.158l6.63-8.158L72.964,70.924z M65.261,72.949l0.44,9.252l5.898-12.123  L65.261,72.949z M63.761,74.875l-5.287,6.68l0.547,6.836l5.216-3.454L63.761,74.875z M65.076,86.295l-5.99,3.958l-0.412,3.702  l8.158-6.616L65.076,86.295z M40.915,90.253l-5.99-3.958l-1.762,1.045l8.165,6.616L40.915,90.253z M42.556,90.594L43.047,95h13.907  l0.49-4.406H42.556z M56.911,81.996H43.089l-0.561,7.007h14.944L56.911,81.996z M36.246,74.719l-0.483,10.219l5.216,3.454  l0.561-6.985L36.246,74.719z M27.036,70.924l-1.705,7.12l6.63,8.158l1.947-1.158L27.036,70.924z M28.394,70.079l5.905,12.123  l0.434-9.252L28.394,70.079z M42.229,36.011c-0.05,0.043-0.099,0.078-0.156,0.114l-4.541,2.665l3.695,8.989l1.94-11.818  L42.229,36.011z M36.004,39.266h-6.936l-5.01,10.78l16.316-0.156L36.004,39.266z M23.796,51.638l3.709,16.287l7.526,3.404  l4.221-15.683l1.236-4.164L23.796,51.638z M45.413,54.225l-4.363,2.047l1.322,2.985l3.439-0.505L45.413,54.225z M47.9,60.229  l0.533,1.18l1.564,0.249l1.563-0.249l0.54-1.18H47.9z M54.58,54.225l-0.391,4.527l3.439,0.505l1.322-2.985L54.58,54.225z   M46.976,53.82l0.419,4.818h5.209l0.419-4.818H46.976z M44.873,35.4l-2.558,15.506l-1.037,3.496l4.065-1.897L46.465,32.7  L44.873,35.4z M51.801,30.263h-3.603l-1.244,21.965h6.09L51.801,30.263z M57.657,50.807L55.127,35.4l-1.592-2.7l1.123,19.805  l4.065,1.897L57.657,50.807z M57.927,36.125c-0.057-0.036-0.107-0.071-0.156-0.114l-0.938-0.05l1.94,11.818l3.695-8.989  L57.927,36.125z M70.931,39.266h-6.936l-4.37,10.624l16.316,0.156L70.931,39.266z M59.512,51.482l1.251,4.221l4.207,15.627  l7.526-3.404l3.709-16.287L59.512,51.482z M77.945,51.141l-3.937,17.304l1.364,5.692l3.553-22.782l0.348-2.558L77.945,51.141z   M78.016,15.773v10.915l1.812,1.123v-7.419L78.016,15.773z M78.13,28.635l0.696,9.103v0.114l-0.611,9.593l1.613-2.857V29.687  L78.13,28.635z M76.545,28.756L72.31,32.38l1.684,2.906c0.206,0.348,0.185,0.782-0.057,1.116L72.36,38.57l4.242,9.117l0.633-9.899  L76.545,28.756z M58.282,24.99l-4.726,4.612l2.8,4.747l1.485,0.071l4.207-3.233L58.282,24.99z M50.245,24.741l-0.249-0.007  l-0.242,0.007v-0.007l-6.189-0.163l4.2,4.1h4.463l4.207-4.1L50.245,24.741z M41.718,24.99l-3.773,6.197l4.214,3.233l1.485-0.071  l2.8-4.747L41.718,24.99z M24.57,27.619l4.335,3.702l7.547-0.739l3.503-5.763L24.57,27.619z M26.006,35.287l1.684-2.906  l-4.235-3.624l-0.689,9.068l0.632,9.863l4.243-9.117l-1.578-2.167C25.821,36.075,25.8,35.635,26.006,35.287z M21.174,37.745  l0.689-9.11l-1.691,1.052v14.902l1.613,2.857l-0.611-9.593V37.745z M20.172,20.392v7.419l1.812-1.123V15.773L20.172,20.392z   M60.045,24.819l3.503,5.763l7.54,0.739l4.342-3.702L60.045,24.819z M63.228,5.377l-3.83,17.709l17.026,3.091V12.049L63.228,5.377z   M38.321,5l3.88,17.943l7.803,0.199l7.795-0.199L61.679,5H38.321z M36.772,5.377l-13.196,6.673v14.127l17.027-3.091L36.772,5.377z"></path></g><g id="SvgjsG1524" featureKey="jxYttZ-0" transform="matrix(1.4322191901549237,0,0,1.4322191901549237,138.5677808098451,74.0967046234672)" fill="url(#SvgjsLinearGradient1531)"><path d="M12.7 16.46 l1.46 1.46 c-1.38 1.52 -3.36 2.28 -5.54 2.28 c-4.22 0 -7.62 -3.34 -7.62 -7.7 c0 -4.34 3.4 -7.68 7.62 -7.68 c2.18 0 4.16 0.76 5.56 2.3 l-1.46 1.46 c-0.88 -1.28 -2.48 -1.92 -4.1 -1.92 c-3.1 0 -5.4 2.76 -5.4 5.84 c0 2.82 2.08 5.86 5.4 5.86 c1.44 0 3.28 -0.56 4.08 -1.9 z M21.32 11.64 c-1.7 0 -3.08 1.42 -3.08 3.44 c0 2 1.38 3.44 3.08 3.44 s3.08 -1.44 3.08 -3.44 c0 -2.02 -1.38 -3.44 -3.08 -3.44 z M21.32 9.94 c2.84 0 5.14 2.2 5.14 5.14 s-2.3 5.12 -5.14 5.12 s-5.14 -2.18 -5.14 -5.12 s2.3 -5.14 5.14 -5.14 z M28.52 15.82 l0 -5.7 l2.06 0 l0 5.5 c0 2 0.62 2.88 2.32 2.88 c1.92 0 2.7 -1.34 2.7 -3.08 l0 -5.3 l2.06 0 l0 9.88 l-2.06 0 l0 -1.6 c-0.28 0.88 -1.52 1.68 -2.7 1.76 c-2.68 0.2 -4.38 -1.1 -4.38 -4.34 z M49.60000000000001 14.3 l0 5.7 l-2.06 0 l0 -5.5 c0 -2 -0.62 -2.88 -2.32 -2.88 c-1.92 0 -2.7 1.34 -2.7 3.08 l0 5.3 l-2.06 0 l0 -9.88 l2.06 0 l0 1.6 c0.28 -0.88 1.52 -1.68 2.7 -1.76 c2.68 -0.2 4.38 1.1 4.38 4.34 z M56.14000000000001 18.36 c0.64 0.26 1.14 0.08 1.44 -0.06 l0 1.6 c-0.26 0.16 -0.64 0.3 -1.18 0.3 c-1.18 0 -2.22 -0.38 -2.86 -1.42 c-0.6 -1 -0.6 -1.54 -0.6 -3.1 l0 -3.88 l-1.2 0 l0 -1.68 l1.2 0 l0 -3.12 l2.06 0 l0 3.12 l2.58 0 l0 1.68 l-2.58 0 l0 3.88 c0 1.64 0.16 2.24 1.14 2.68 z M69.30000000000001 15.08 l0 0.74 l-7.78 0 c0 1.82 1.74 2.7 3.02 2.7 c0.94 0 1.98 -0.5 2.54 -1.3 l1.42 1.28 c-0.66 0.9 -1.74 1.7 -3.96 1.7 c-3.2 0 -5.16 -2.18 -5.16 -5.12 s1.9 -5.14 4.96 -5.14 s4.46 1.7 4.88 4.18 c0.06 0.32 0.08 0.64 0.08 0.96 z M61.56000000000001 14.120000000000001 l5.58 0 c0 -1.6 -1.28 -2.48 -2.8 -2.48 s-2.78 1.02 -2.78 2.48 z M77.24000000000001 10.24 l-0.44 1.62 c-0.14 -0.08 -0.58 -0.22 -0.94 -0.22 c-1.7 0 -2.5 1.62 -2.5 3.62 l0 4.74 l-2.06 0 l0 -9.88 l2.06 0 l0 1.4 c0.24 -0.92 1.3 -1.58 2.48 -1.58 c0.54 0 1.12 0.14 1.4 0.3 z M85.46000000000001 6.66 c-3.16 0 -5.4 2.8 -5.4 5.84 c0 3.06 2.24 5.86 5.4 5.86 c3.18 0 5.4 -2.8 5.4 -5.86 c0 -3.04 -2.24 -5.84 -5.4 -5.84 z M85.46000000000001 4.82 c4.2 0 7.62 3.32 7.62 7.68 s-3.42 7.7 -7.62 7.7 s-7.62 -3.34 -7.62 -7.7 s3.42 -7.68 7.62 -7.68 z M104.74000000000001 15.08 c0 2.94 -2.12 5.12 -4.96 5.12 c-0.96 0 -2.18 -0.4 -2.84 -0.94 l0 5.84 l-2.06 0 l0 -14.98 l2.06 0 l0 0.78 c0.78 -0.6 1.88 -0.96 2.84 -0.96 c2.84 0 4.96 2.2 4.96 5.14 z M102.66000000000001 15.08 c0 -2.02 -1.38 -3.44 -3.08 -3.44 c-1.12 0 -2.1 0.5 -2.64 1.58 c-0.26 0.54 -0.42 1.18 -0.42 1.86 s0.16 1.32 0.42 1.86 c0.54 1.06 1.52 1.58 2.64 1.58 c1.7 0 3.08 -1.44 3.08 -3.44 z M115.36000000000001 18.16 l7.56 0 l0 1.84 l-9.78 0 l0 -15 l2.22 0 l0 13.16 z M129.14000000000001 9.92 c2.84 0 3.98 1.72 3.98 3.18 l0 6.9 l-2.06 0 l0 -1.08 c-0.72 0.98 -2 1.26 -2.8 1.26 c-2.26 0 -3.74 -1.32 -3.74 -3.08 c0 -2.46 1.84 -3.34 3.74 -3.34 l2.8 0 l0 -0.66 c0 -0.62 -0.24 -1.48 -1.92 -1.48 c-0.94 0 -1.8 0.5 -2.36 1.28 l-1.42 -1.28 c0.94 -1.04 2.28 -1.7 3.78 -1.7 z M131.06 16.92 l0 -1.48 l-2.52 0 c-1.22 0 -2.08 0.62 -1.94 1.74 c0.12 0.94 0.88 1.32 1.94 1.32 c1.9 0 2.52 -0.9 2.52 -1.58 z M140.56 9.94 c2.84 0 4.94 2.2 4.94 5.14 s-2.1 5.12 -4.94 5.12 c-0.96 0 -2.06 -0.36 -2.84 -0.94 l0 0.74 l-2.06 0 l0 -15 l2.06 0 l0 5.9 c0.66 -0.54 1.88 -0.96 2.84 -0.96 z M140.36 18.52 c1.7 0 3.08 -1.44 3.08 -3.44 c0 -2.02 -1.38 -3.44 -3.08 -3.44 c-1.12 0 -2.1 0.5 -2.64 1.56 c-0.28 0.56 -0.44 1.2 -0.44 1.88 s0.16 1.32 0.44 1.86 c0.54 1.06 1.52 1.58 2.64 1.58 z M154.44 16.16 c0.04 0.12 0.38 1.1 -0.04 2.1 c-0.52 1.18 -1.9 1.94 -3.62 1.94 l-0.02 0 c-1.38 0 -2.64 -0.58 -3.58 -1.5 l1.34 -1.34 c0.56 0.72 1.36 1.08 2.24 1.08 c0.98 0 1.8 -0.36 2.02 -0.88 c0.14 -0.36 0.02 -0.74 0.02 -0.78 c-0.24 -0.6 -1.12 -0.72 -2.12 -0.94 c-1.34 -0.3 -2.68 -0.64 -3.2 -2.04 c-0.26 -0.72 -0.18 -1.56 0.18 -2.26 c0.82 -1.54 2.86 -1.6 3.1 -1.6 c1.38 0 2.68 0.52 3.6 1.46 l-1.34 1.34 c-0.56 -0.72 -1.38 -1.04 -2.26 -1.04 c-0.02 0 -1.2 0.02 -1.54 0.68 c-0.12 0.2 -0.18 0.54 -0.08 0.82 c0.2 0.56 1.1 0.74 2.06 0.96 c1.3 0.3 2.72 0.6 3.24 2 z"></path></g>
			</g>
		</svg>
	